<svg xmlns="http://www.w3.org/2000/svg" width="124" height="124" viewBox="0 0 124 124"><g transform="translate(-278 -782)"><circle cx="62" cy="62" r="62" transform="translate(278 782)" fill="#1b95d4"/><path d="M56.144,0h2.544l.046,0h.109l.047,0H58.9l.032,0H59l.043,0h0l.045,0h.018l.029,0h.02l.043,0h0l.044,0h.018l.029,0h.019l.044,0h0l.045,0h0l.046,0h0l.062,0h0l.046,0h0l.108.007h0l.2.013h0l.046,0h0l.062,0h0l.046,0h0l.045,0h0l.062,0h0l.045,0h0l.045,0h0l.061,0h0l.045,0h0l.2.015h0l.108.009h0l.045,0h0l.154.013h0L60.9.2h.016l.046,0h0l.046,0h0l.046,0h0l.061.005h0l.045,0h0l.107.01h0l.045,0h0l.045,0h0l.044,0h.019l.043,0h0l.045,0h0l.045,0h.017l.044,0h0l.042,0,.018,0h0l.029,0h.019l.029,0h0l.018,0,.042,0h0l.043,0,.017,0h0l.027,0h0l.018,0,.041,0L62,.3l.027,0,.019,0,.029,0,.016,0H62.1l.018,0h.009l.019,0h.01l.016,0,.019,0,.02,0,.025,0,.02,0h.011l.015,0,.019,0,.026,0,.02,0,.022,0,.023,0,.02,0h.008l.016,0,.02,0,.025,0,.02,0,.026,0,.019,0,.021,0,.023,0,.02,0,.025,0h0l.016,0,.024,0,.02,0,.022,0,.022,0h.006l.02,0,.024,0,.021,0,.021,0,.023,0L62.9.4l.022,0,.022,0,.022,0h0l.043.005h0l.043.005h0l.065.008h0c.333.041.668.086,1,.133l-.282,1.98A54.834,54.834,0,0,0,56.144,2V0ZM71.931,2.25c.277.081.551.163.825.248h0l.06.019h0l.059.019h0l.061.019h0L73,2.575h0l.02.006h0l.06.019h0l.058.019h0l.057.018,0,0,.057.018h0l.019.006h0l.037.012.005,0,.018.006h0l.037.012h0l.018.006.006,0,.036.012h0l.017.006.007,0,.053.017.008,0,.053.017.008,0,.017.005.005,0,.03.01.009,0,.016.005.008,0,.028.009.008,0,.016.005.01,0,.026.009.009,0,.015,0,.011,0,.02.007.015,0,.015.005.01,0,.014,0,.021.007.013,0,.012,0,.013,0,.016.005.018.006.014,0,.012,0,.016.005.016.005.016.005.012,0,.016.005.015,0,.019.006.01,0,.017.006.008,0,.024.008.009,0,.018.006.009,0,.024.008.009,0,.017.006.01,0L74.294,3,74.3,3l.018.006.01,0,.023.008.006,0,.021.007.009,0,.022.007,0,0,.025.009.008,0,.023.008h0l.026.009.007,0,.022.008.005,0,.026.009.006,0,.022.008.006,0,.027.009h0l.024.009,0,0,.027.01h0l.027.009,0,0,.055.019h0l.056.02h0l.027.009h0l.029.01h0l.028.01h0l.058.021h0l.058.021h0q2.239.8,4.387,1.781l-.83,1.82A53.93,53.93,0,0,0,71.37,4.17ZM86.439,8.867a56.334,56.334,0,0,1,5.737,4.219h0l.047.039h0l.046.039,0,0,.045.038,0,0,.045.038,0,0,.044.037,0,0,.043.036.006,0,.019.016h0l.021.018.006,0,.019.016,0,0,.02.017.006.005.017.015,0,0,.02.017.007.006.016.014,0,0,.019.017.008.007.014.012.007.006.019.016.008.007.013.011.008.007.018.016.009.008.012.01.009.008.017.015.01.008.01.009.01.009.015.013,0,0-1.308,1.513a54.532,54.532,0,0,0-6.175-4.616ZM98.5,19.295a56.357,56.357,0,0,1,4.808,6.385l-1.679,1.087A54.539,54.539,0,0,0,97,20.608Zm8.662,13.388c.2.428.389.86.576,1.293h0l.084.2h0l.024.058v0l.024.055,0,0,.023.055v0l.024.056v0l.008.019v0l.016.038h0l.008.019v0l.023.056,0,0,.023.054,0,.005.022.053,0,.005.007.017v0l.014.035,0,0,.007.017,0,0,.013.032,0,.005.007.016,0,.007.013.031,0,0,.007.016,0,.007.014.035h0l.006.015,0,.009.021.05,0,.008.006.016,0,.007.011.028,0,.009.006.015,0,.009.01.025,0,.01.006.015,0,.01.01.024,0,.011.006.014,0,.01.009.023,0,.012.005.013,0,.012.005.013.008.021.005.013,0,.012.005.013.008.02.005.013.005.014,0,.012.007.017.006.015.006.014.005.013.006.014.006.015.007.017,0,.011.006.016,0,.009.009.023,0,.01.007.017,0,.009.009.023,0,.01.006.016,0,.01.009.023,0,.009.007.017,0,.009.009.024,0,.007.007.019,0,.009.008.021,0,.007.009.022,0,.008.008.021,0,.005.01.025,0,.007.008.02,0,.007.01.025,0,.007.008.021,0,.006.01.026,0,0,.009.022,0,.006.01.026v0l.009.025,0,.006.02.053,0,.006.02.054,0,0,.01.026h0l.01.028v0l.01.026v0l.01.028v0l.009.025v0l.01.028h0l.01.027v0l.021.056v0l.021.057h0q.672,1.8,1.223,3.657l-1.918.568a53.931,53.931,0,0,0-2.714-7.213ZM111.7,47.971q.125.859.224,1.726h0l0,.043h0l0,.043v0l0,.042v0l0,.019v0l0,.041v0l0,.041v0l0,.018v0l0,.02v0l0,.016v.006l0,.019v0l0,.015v.029l0,.016v.027l0,.017v.028l0,.016v.038l0,.019v.026l0,.019v.04l0,.027v.021l0,.027v.02l0,.041v0l0,.043v.018l0,.029h0v.015h0l0,.045h0l0,.046h0q.145,1.493.211,3.008v0l0,.044v.017h0v.05l0,.043v0l0,.042v.508h0v.089h0v.022h0v.022h0c.013.474.021.951.023,1.428l-2,.007a54.8,54.8,0,0,0-.569-7.69l1.979-.289Zm-1.924,15.674,1.981.274a55.838,55.838,0,0,1-1.634,7.729h0l-.017.059v0l-.008.026v0l-1.922-.554A54.027,54.027,0,0,0,109.773,63.645Zm-4.262,14.771,1.823.824q-.384.85-.8,1.686h0l-.028.056v0l-.027.055v0l-.027.054,0,0-.027.054v0l-.027.054v0l-.009.018h0l-.018.035v0l-.009.018,0,0-.017.033,0,0-.008.017,0,0-.016.032v0l-.008.016,0,.008-.025.049,0,.007-.025.05,0,.006-.025.049,0,.009-.007.014,0,.007-.013.025-.005.01-.007.013-.006.012-.011.021-.006.011-.006.013-.006.012-.011.021-.005.01-.007.013-.006.011-.011.021-.006.011-.007.013-.006.011-.01.019-.007.013-.006.012-.006.012-.009.018-.007.014-.007.013-.006.011-.009.017-.008.016-.006.012-.006.012-.006.011-.011.021-.006.011-.007.013-.006.011-.011.021-.006.011-.007.013-.006.011-.011.021-.005.01-.008.014-.006.011-.009.018-.006.012-.008.015-.005.01-.009.017-.006.011-.009.017-.005.01-.009.018,0,.007-.011.021-.005.01-.009.017,0,.007-.012.022-.005.01-.008.016,0,.008-.012.022,0,.009-.009.017,0,.008-.012.022,0,.009-.009.017,0,.008-.012.023,0,.008-.009.017,0,.008-.012.023,0,.007-.01.018,0,.008-.012.023,0,.006-.01.019,0,.008-.012.023,0,.005-.011.02,0,.007-.012.021,0,0-.012.022,0,.007-.011.02,0,0-.013.024,0,.007-.011.02,0,0-.013.024,0,.006-.011.021,0,0-.013.024,0,.005-.011.021,0,0-.013.024,0,0-.011.02,0,.005-.013.024,0,0-.012.021,0,.005-.014.025v0l-.012.023,0,.006-.014.025h0l-.013.024,0,.005-.027.049,0,.006-.027.049,0,.005-.014.024h0l-.014.025,0,0-.013.023v0l-.014.025,0,0-.013.024v0l-.014.026,0,0-.013.024v0l-.014.026v0l-.014.024v0l-.015.026v0l-.013.024,0,0-.028.05,0,0-.014.025h0l-.014.025,0,0-.029.051,0,0-.029.052,0,0-.03.052v0l-.015.026h0l-.015.027h0l-.015.026h0L104.9,84h0l-.015.026h0l-.031.053h0l-.03.053v0l-.03.052h0l-.031.053h0l-.031.053h0l-.031.053h0l-.031.053h0l-.11.188h0l-.032.054h0q-.484.819-.994,1.62L101.843,85.2A54.2,54.2,0,0,0,105.511,78.416ZM97.25,91.387l1.518,1.3c-.125.145-.251.291-.377.435h0l-.041.046v0l-.04.046h0l-.04.045,0,0-.039.045,0,0-.039.044,0,0-.039.044,0,0-.04.045,0,0-.04.045,0,0-.04.045,0,0L98,93.566h0l-.027.03,0,0-.013.015h0l-.025.028,0,0-.013.014,0,0-.025.027,0,0-.013.014,0,0-.025.028v0l-.013.014,0,0-.026.029h0l-.013.014,0,0-.025.028v0l-.012.014,0,0-.024.027,0,0-.012.013L97.7,93.9l-.024.026,0,0-.012.013-.005.005-.038.041,0,0-.038.042,0,0-.038.042,0,0-.039.042,0,0-.039.042,0,0-.039.043,0,0-.013.014h0l-.025.027,0,0-.013.014h0l-.026.028,0,0-.013.014,0,0-.025.027,0,0-.013.014,0,0-.025.027,0,0-.013.014,0,0-.025.026,0,0-.013.014,0,0-.026.028h0l-.013.014,0,0-.04.042,0,0-.027.028h0l-.013.014,0,0-.025.027h0L97,94.649l0,0-.039.041,0,0-.039.042,0,0-.039.042,0,0-.04.042,0,0-.04.042,0,0-.04.042,0,0-.041.043,0,0-.041.042,0,0-.014.014h0l-.027.028,0,0-.014.014h0l-.028.029,0,0-.014.014,0,0-.026.027,0,0-.014.015h0l-.029.03h0l-.014.014,0,0-.028.029h0l-.014.015h0l-.042.044,0,0-.041.043,0,0-.041.042,0,0-.041.042,0,0-.041.042,0,0-.041.042,0,0-.042.042,0,0-.042.043,0,0-.042.043,0,0-.042.043,0,0-.042.042,0,0-.042.042,0,0-.014.014,0,0-.024.024,0,0-.013.013,0,0-.025.025,0,0-.013.013,0,0-.026.025,0,0-.014.014,0,0-.042.042,0,0-.042.042,0,0-.041.04,0,0-.04.04,0,0-.041.04,0,0-.041.04,0,0-.041.04,0,0-.041.04,0,0-.041.04,0,0-.041.04,0,0-.014.013h0l-.026.026-.005,0-.013.013,0,0-.025.025,0,0-.013.012,0,0-.024.023,0,0-.013.012-.005,0-.022.022-.005.005-.012.012-.006.005-.022.021-.006.005-.012.012-.006.006-.022.021-.006.005L95,96.667,95,96.673l-.021.02-.006.006-.012.011-.007.007-.019.018-.008.008-.011.011-.008.008-.016.015-.011.01-.01.01-.009.009-.015.014-.011.011-.011.01-.009.008-.014.013-.013.012-.01.01-.009.009-.01.009-.017.016-.01.009-.009.009-.01.01-.016.015-.009.009-.01.009-.01.009L94.651,97l-.009.008-.011.01-.009.009-.016.015-.01.009-.011.01-.009.009-.016.015-.009.009-.012.011-.009.008-.018.017-.006.006-.014.013-.008.008-.016.015-.008.007-.014.013-.008.007-.017.016-.006.005-.016.015-.006.006-.019.018,0,0-.019.017-.006.006-.018.017h0l-.02.018-.006.005-.018.017,0,0-.02.019-.005.005-.019.017,0,0-.021.019,0,0-.02.018h0l-.021.02,0,0-.043.04,0,0-.021.02h0l-.022.02,0,0-.045.041h0q-.438.4-.885.792l-1.319-1.5A54.672,54.672,0,0,0,97.25,91.387ZM85.684,101.528l1.093,1.675-.005,0-.017.011-.009.006-.017.011-.01.006-.017.011-.009.006-.016.01-.011.007-.017.011-.009.006-.015.009-.009.006-.02.013-.01.007-.013.008-.01.007-.02.013-.01.006-.013.008-.01.007-.019.012-.011.007-.012.008-.011.007-.019.012-.011.007-.011.007-.011.007-.015.01-.016.01-.01.006-.013.008-.009.006-.022.014-.008.005-.013.009-.009.006-.022.014-.009.006-.013.009-.008.005-.023.015-.008.005-.014.009-.008.005-.025.016-.006,0-.015.009-.007,0-.026.016-.006,0-.014.009-.007,0-.047.029-.006,0-.047.03-.006,0-.048.03,0,0-.016.01h0l-.032.02-.006,0-.015.01h0l-.031.019-.005,0-.015.01,0,0-.029.018,0,0-.016.01,0,0-.032.02h0l-.016.01-.005,0-.031.019h0l-.016.01,0,0-.05.031,0,0-.05.031,0,0-.051.031,0,0-.05.031,0,0-.049.03,0,0-.016.01h0l-.032.02,0,0-.016.01,0,0-.029.018-.006,0-.015.009-.005,0-.03.019,0,0-.016.01,0,0-.032.019h0l-.016.01-.005,0-.049.03,0,0-.049.03-.006,0-.047.028-.008,0-.047.028-.006,0-.015.009,0,0-.029.017-.007,0-.014.009-.007,0-.025.015-.008,0-.014.008-.007,0-.025.015-.008,0-.014.008-.008,0-.024.014-.008,0-.013.008-.009.006-.023.014-.008,0-.013.008-.009.005-.02.012-.012.007-.013.007-.011.006-.013.008-.018.011-.011.007-.012.007-.012.007-.019.011-.011.007-.012.007-.012.007-.02.012-.01.006-.013.008-.011.006-.02.012-.009.006-.014.008-.011.006-.017.01-.012.007-.014.008-.011.006-.016.009-.012.007-.016.009-.01.006-.016.009-.01.006-.019.011-.01.006-.016.01-.007,0-.022.013-.009.005-.017.01-.006,0-.023.013-.008,0-.018.01-.007,0-.023.013-.007,0-.018.01-.007,0-.023.013-.006,0-.02.011-.006,0-.023.013-.005,0-.02.011-.006,0-.024.014,0,0-.021.012-.006,0-.024.014h0l-.023.013-.006,0-.049.028-.005,0-.024.014h0l-.025.014,0,0-.024.014h0l-.025.014,0,0-.024.013h0l-.026.014,0,0-.024.014h0l-.026.015h0l-.026.014h0l-.053.029h0l-.052.029h0l-.053.029h0l-.054.03h0q-1.7.937-3.461,1.758l-.843-1.814A54.224,54.224,0,0,0,85.684,101.528Zm-13.943,6.481.575,1.915a55.8,55.8,0,0,1-7.8,1.744l-.3-1.978A54,54,0,0,0,71.742,108.008ZM48.836,109.8a54.934,54.934,0,0,0,7.7.487l.014,2H53.862l-.039,0h-.051l-.04,0h-.049l-.041,0h-.049l-.042,0H53.5l-.042,0h-.048l-.045,0h-.045l-.064,0h-.025l-.065,0H53.14l-.062,0h-.027l-.063,0h-.027l-.063,0h-.026l-.066,0h0l-.089-.005h-.023q-2.086-.126-4.126-.4ZM34.05,105.59a53.924,53.924,0,0,0,7.242,2.636l-.548,1.924a55.755,55.755,0,0,1-7.511-2.734Zm-13-8.215a54.515,54.515,0,0,0,6.208,4.571l-1.069,1.691q-2.277-1.439-4.4-3.086h0l-.049-.038h0l-.048-.038h0l-.048-.037h0l-.048-.037h0l-.047-.037h0l-.047-.037h0l-.047-.037,0,0-.047-.037,0,0-.047-.037h0l-.023-.018h0l-.023-.018,0,0-.021-.017h0l-.023-.018,0,0-.022-.018h0l-.024-.019h0l-.022-.017,0,0-.023-.018h0l-.022-.017,0,0-.023-.018h0l-.021-.017,0,0-.023-.018h0l-.022-.018,0,0-.045-.036,0,0-.045-.036,0,0-.022-.018h0l-.022-.018,0,0-.022-.018h0l-.022-.018,0,0-.021-.017,0,0-.022-.018,0,0-.02-.016,0,0-.022-.018,0,0-.019-.016,0,0-.022-.018,0,0-.02-.016,0,0-.022-.018,0,0-.019-.015,0,0-.021-.017,0,0-.018-.015,0,0-.021-.018,0,0-.018-.015-.006,0-.021-.017,0,0-.018-.015-.005,0-.021-.018,0,0-.02-.016,0,0L20.4,99.44l0,0-.019-.016-.005,0L20.35,99.4h0l-.019-.016-.006-.005L20.3,99.36h0l-.02-.017-.006-.005-.019-.016,0,0-.021-.017-.006-.005-.019-.016,0,0-.021-.017-.006,0-.018-.015,0,0-.02-.017-.007-.006-.016-.013-.005,0-.02-.017-.007-.006-.016-.013-.006,0-.02-.017-.007-.006-.015-.013-.006-.005-.02-.017-.007-.006-.015-.013-.006-.005-.019-.016-.007-.006-.015-.012-.007-.006-.02-.017-.007-.006L19.875,99,19.868,99l-.019-.016-.007-.006-.014-.012-.008-.006L19.8,98.94l-.007-.006-.014-.012-.008-.006-.018-.015,0,0ZM10.867,85.847a54.55,54.55,0,0,0,4.682,6.126L14.05,93.3c-.279-.316-.552-.632-.824-.954h0l-.039-.047,0,0-.037-.045,0-.005-.036-.043-.005-.006-.035-.041-.007-.008-.01-.012-.014-.017-.009-.011-.008-.01-.009-.01L13,92.068l-.008-.01-.009-.011-.008-.01-.015-.018-.007-.008L12.937,92l-.007-.008-.016-.019-.006-.007-.012-.015-.006-.007-.017-.02,0,0-.015-.018,0-.006-.017-.021v0l-.017-.02,0,0-.036-.044,0,0-.036-.044,0,0L12.7,91.7l0,0-.038-.047h0A56.335,56.335,0,0,1,9.2,86.946ZM4.336,71.928A53.942,53.942,0,0,0,7.1,79.121l-1.811.85q-.227-.484-.445-.973v0l-.025-.056,0,0L4.8,78.882l0,0-.008-.018v0l-.015-.034,0,0L4.76,78.8l0-.005-.013-.03,0-.006-.007-.016,0-.008-.012-.027,0-.008-.006-.015,0-.009-.01-.022-.005-.012-.006-.014,0-.011-.006-.014-.009-.02-.006-.013-.005-.012-.006-.013-.007-.015-.008-.018L4.629,78.5l-.006-.013-.006-.014L4.61,78.46,4.6,78.446,4.6,78.434l-.006-.014L4.586,78.4l-.007-.017-.005-.012-.006-.014,0-.01-.01-.022,0-.01L4.542,78.3l0-.009-.01-.022,0-.01-.007-.016,0-.01-.01-.023,0-.009-.007-.017,0-.01-.01-.023,0-.007-.008-.019,0-.009-.009-.02,0-.006-.01-.023,0-.008-.009-.02,0-.005-.01-.025,0-.007-.009-.021,0,0-.011-.025,0-.006-.009-.02,0-.006L4.37,77.9l0-.005-.009-.021,0-.006-.011-.026v0l-.01-.024,0-.006-.022-.052,0-.006-.01-.025h0L4.286,77.7l0-.006-.01-.024v0l-.011-.026,0,0-.01-.023v0l-.011-.026,0,0-.01-.023,0,0-.011-.027h0L4.2,77.5l0,0-.022-.053,0,0-.022-.054,0,0-.011-.027h0l-.011-.027,0,0-.01-.025v0l-.011-.027v0l-.01-.024,0,0L4.084,77.2h0l-.01-.026,0,0-.022-.054,0,0-.022-.054v0L4,77l0,0-.011-.027h0l-.011-.028v0l-.011-.027h0l-.011-.028h0l-.01-.026v0l-.011-.028h0L3.922,76.8v0L3.9,76.742v0l-.022-.056v0l-.022-.056v0l-.01-.027h0l-.011-.028v0l-.01-.026v0l-.011-.028h0L3.8,76.481v0l-.021-.055v0l-.021-.055,0,0-.021-.054,0,0-.01-.025v0l-.011-.028v0l-.01-.025v0l-.011-.028v0l-.01-.025v0l-.011-.028h0l-.01-.027v0l-.021-.055,0,0-.02-.054,0,0L3.6,75.956v0l-.01-.027,0,0L3.574,75.9v0l-.01-.027,0,0-.009-.023,0-.005-.01-.027v0l-.009-.025,0,0-.01-.027h0l-.01-.026,0-.005-.02-.053,0-.006-.009-.025v0l-.01-.027,0-.006-.008-.023,0,0-.01-.026,0-.006-.008-.022,0-.005-.01-.026,0,0-.008-.023,0-.006-.01-.026v0L3.389,75.4l0-.008-.009-.025,0,0-.008-.022,0-.009-.008-.021,0-.005-.009-.025,0-.008-.007-.019,0-.007-.009-.024,0-.009L3.315,75.2l0-.008L3.3,75.164l0-.008-.007-.018,0-.009L3.282,75.1l0-.008-.006-.018,0-.01-.008-.022,0-.009-.006-.017,0-.011-.006-.018,0-.013L3.23,74.96l0-.011-.006-.016,0-.011L3.209,74.9l0-.012L3.2,74.874l0-.011-.008-.022,0-.011-.005-.015,0-.011-.008-.023,0-.012,0-.014,0-.012-.006-.018-.005-.015,0-.013,0-.013,0-.012-.008-.022,0-.012,0-.014,0-.011L3.1,74.588l0-.011,0-.014,0-.011-.008-.024,0-.011,0-.014,0-.01-.005-.015,0-.007-.01-.029,0-.008-.018-.053,0-.007-.006-.017,0,0-.011-.032,0-.007L3,74.3l0-.005-.012-.034v0l-.006-.017,0-.006-.019-.055,0-.006-.019-.055,0,0-.019-.057v0l-.02-.059v0l-.027-.081h0q-.231-.694-.445-1.4ZM2,56.728a54.741,54.741,0,0,0,.624,7.685l-1.977.3,0-.02v0l0-.019h0l0-.021v0l0-.018v0l0-.02v0l0-.018v0l-.006-.04v0l0-.016v0l0-.019v0l0-.015v-.005l0-.019v0l0-.015v-.007l0-.015v-.005l0-.016v-.008l0-.012v-.007l0-.017V64.32l0-.013,0-.012v-.029l0-.017v-.029l0-.012,0-.013v-.018l0-.011v-.006l0-.021v-.007l0-.012v-.006l0-.023v0l0-.013v0L.55,64.031v0l-.006-.041v0l0-.013v0l-.006-.043v0l-.006-.043v0l-.014-.105v0l-.006-.044v0L.5,63.676h0Q.343,62.5.234,61.3h0l0-.046h0l0-.045v0l-.005-.06v0l0-.043v0l0-.043v-.021l0-.026v-.021l0-.026v-.02l0-.039v-.026l0-.02v-.593l0-.042V60.2h0l0-.021v-.022h0l0-.043v0l0-.043h0l0-.044h0Q.021,58.4,0,56.749Zm.084-15.789,1.925.542a53.891,53.891,0,0,0-1.549,7.549L.481,48.768q.261-1.989.66-3.933h0l0-.014v0l.009-.042v0l0-.013v0l.008-.04v0l0-.012v-.006l.008-.038v-.006l0-.011v-.007l0-.016,0-.01,0-.01,0-.009,0-.009,0-.011,0-.009,0-.015,0-.008,0-.011,0-.007,0-.017h0l0-.018v-.006l0-.014v0l.008-.038v0l0-.015v0l.008-.039v0l.026-.122h0Q1.629,42.566,2.087,40.938ZM8.556,26.364l1.694,1.063a54.412,54.412,0,0,0-3.623,6.8L4.8,33.42q.238-.535.486-1.064h0l.017-.036v0l.008-.018h0l.016-.034,0,0,.008-.017,0,0,.014-.03,0-.007.008-.016v0l.015-.031,0-.006.007-.015,0-.006.013-.027,0-.009.007-.014,0-.008.011-.024.005-.011.006-.013L5.453,32l.006-.012.006-.013.005-.011.01-.021.005-.011.007-.014,0-.01.01-.021,0-.01.007-.015,0-.009.011-.022,0-.01.008-.016,0-.008.011-.022,0-.009.009-.019,0-.005.011-.023,0-.008.01-.021v0l.012-.025,0-.006.012-.024h0l.012-.025,0-.007.012-.025h0l.012-.025,0-.005.025-.051,0,0,.026-.052,0,0,.026-.053v0l.027-.054h0l.027-.056h0Q7.063,28.743,8.556,26.364ZM18.837,14.173l1.331,1.492c-1.118,1-2.206,2.053-3.233,3.139-.733.774-1.452,1.579-2.137,2.392l-1.529-1.289q.987-1.17,2.035-2.288h0l.016-.017,0,0,.051-.055,0,0,.014-.015,0,0,.016-.017h0l.017-.018,0,0,.013-.014.005-.005.012-.013,0-.005.016-.017h0l.014-.015,0,0,.01-.011,0-.005.009-.01,0,0,.01-.01,0,0,.013-.013h0l.014-.015,0,0,.013-.013,0,0,.011-.011,0,0,.01-.011,0,0,.012-.012,0,0,.029-.03,0,0,.012-.012,0,0,.011-.012,0,0L15.7,17.2l0,0,.013-.013,0,0,.029-.03,0,0,.012-.012,0,0,.011-.012,0,0,.013-.014h0l.03-.031h0l.014-.014,0,0,.012-.013,0,0,.013-.014h0l.059-.061h0l.013-.014,0,0,.013-.014h0L16,16.886h0l.014-.014,0,0,.014-.015h0q.955-.981,1.96-1.914h0l.062-.058,0,0,.014-.013h0l.016-.014h0l.032-.029h0l.015-.014,0,0,.013-.012,0,0,.013-.012,0,0,.014-.013h0l.031-.028,0,0,.012-.011,0,0,.011-.01,0,0,.011-.01,0,0,.03-.028,0,0,.011-.01.007-.006.009-.008.006-.006.009-.008.006-.006.01-.009,0,0,.013-.012.006-.006.01-.009.006-.005.009-.008.007-.007.007-.006.008-.007.006-.005.009-.009,0,0,.034-.031,0,0,.01-.009,0,0,.01-.009.005,0,.009-.008,0,0,.037-.033h0l.012-.011,0,0,.011-.01,0,0,.011-.01,0,0,.012-.01h0l.04-.036h0l.012-.011,0,0,.012-.011h0l.081-.073h0l.013-.012h0Zm13.295-8.8.855,1.808a54.052,54.052,0,0,0-6.714,3.784l-1.1-1.668.349-.229h0l.052-.034,0,0,.051-.033,0,0,.016-.01,0,0,.031-.02,0,0,.015-.01.006,0,.047-.03.008,0,.014-.009.006,0,.026-.017.008-.005.014-.009.009-.006.02-.013.012-.007.012-.008.01-.006.012-.008.019-.012.012-.008.011-.007.012-.007.015-.009.015-.01L26,8.755l.011-.007.014-.009.012-.008.017-.011.01-.006.015-.009.008-.005.022-.014.008,0,.016-.01.007,0,.023-.014,0,0,.02-.012.007,0,.02-.013,0,0,.023-.015.006,0,.019-.012,0,0,.024-.015,0,0,.02-.013.005,0,.024-.015h0l.023-.014.005,0L26.4,8.5h0l.024-.015.005,0,.022-.014h0l.025-.016,0,0,.023-.014,0,0,.05-.031,0,0,.05-.031h0l.024-.015h0l.026-.016h0l.025-.015h0l.051-.032h0l.052-.032h0l.052-.032h0l.026-.016h0l.053-.032h0A55.873,55.873,0,0,1,32.132,5.369ZM47.372.681l.31,1.976a54.135,54.135,0,0,0-7.51,1.733l-.588-1.912Q41.151,2,42.757,1.6h0l.059-.014h0l.043-.01h0l.042-.01h0l.013,0h0l.027-.007h0l.013,0h0L43,1.546h0l.013,0h0l.039-.009.019,0h0l.024-.006.018,0,.008,0,.017,0,.019,0,.023-.005.013,0,.02,0,.008,0,.017,0,.02,0,.007,0,.017,0,.007,0,.014,0h.006l.019,0h0l.015,0,.007,0,.015,0h.006l.018,0H43.4l.016,0h0l.019,0h0l.015,0h.005l.02,0h0l.017,0h.005l.02,0h0l.02,0h0l.04-.009h0l.018,0h0l.02,0h0l.019,0h0l.021,0h0l.02,0h0l.041-.009h0L43.8,1.36h0l.022,0h0Q45.575.963,47.372.681ZM56.144,0V2c-.259,0-.521,0-.779.005l-.028-2,.3,0h.505Z" transform="translate(283.834 787.833)" fill="#fff"/><path d="M.9,0H5.8V-1.309H4.268V-7.931h-1.2a5.28,5.28,0,0,1-1.892.682v1H2.651v4.939H.9Zm6.05,0h5.456V-1.364H10.626c-.385,0-.924.044-1.331.088,1.452-1.518,2.728-2.948,2.728-4.334A2.374,2.374,0,0,0,9.46-8.085,3.278,3.278,0,0,0,6.875-6.842l.88.88a2.144,2.144,0,0,1,1.5-.847,1.147,1.147,0,0,1,1.221,1.287c0,1.177-1.4,2.563-3.52,4.587Zm9.5,0H18V-3.267c0-.935-.121-1.958-.2-2.838h.055l.825,1.749L21.032,0h1.65V-8.151h-1.54v3.256c0,.924.132,2,.209,2.849H21.3l-.814-1.76L18.117-8.151H16.456ZM27.137.154A3.005,3.005,0,0,0,30.1-3.08a3.005,3.005,0,0,0-2.959-3.234A3.005,3.005,0,0,0,24.178-3.08,3.005,3.005,0,0,0,27.137.154Zm0-1.32c-.836,0-1.309-.748-1.309-1.914s.473-1.914,1.309-1.914,1.309.759,1.309,1.914S27.973-1.166,27.137-1.166ZM32.747,0h1.87l2.057-6.16H35.123l-.9,3.069c-.165.6-.33,1.243-.495,1.87h-.055c-.165-.627-.33-1.265-.495-1.87l-.9-3.069H30.646Zm5.192.154A1.013,1.013,0,0,0,38.951-.9a1.007,1.007,0,0,0-1.012-1.056,1,1,0,0,0-1,1.056A1.011,1.011,0,0,0,37.939.154ZM42.7,0h5.456V-1.364H46.376c-.385,0-.924.044-1.331.088C46.5-2.794,47.773-4.224,47.773-5.61A2.374,2.374,0,0,0,45.21-8.085a3.278,3.278,0,0,0-2.585,1.243l.88.88A2.144,2.144,0,0,1,45-6.809a1.147,1.147,0,0,1,1.221,1.287c0,1.177-1.4,2.563-3.52,4.587Zm9.251.154C53.625.154,54.7-1.309,54.7-4c0-2.673-1.078-4.081-2.75-4.081S49.192-6.688,49.192-4,50.281.154,51.953.154Zm0-1.265c-.7,0-1.232-.682-1.232-2.893s.528-2.816,1.232-2.816S53.174-6.2,53.174-4,52.657-1.111,51.953-1.111ZM55.66,0h5.456V-1.364H59.334c-.385,0-.924.044-1.331.088,1.452-1.518,2.728-2.948,2.728-4.334a2.374,2.374,0,0,0-2.563-2.475,3.278,3.278,0,0,0-2.585,1.243l.88.88a2.144,2.144,0,0,1,1.5-.847A1.147,1.147,0,0,1,59.18-5.522c0,1.177-1.4,2.563-3.52,4.587Zm6.479,0H67.6V-1.364H65.813c-.385,0-.924.044-1.331.088C65.934-2.794,67.21-4.224,67.21-5.61a2.374,2.374,0,0,0-2.563-2.475,3.278,3.278,0,0,0-2.585,1.243l.88.88a2.144,2.144,0,0,1,1.5-.847,1.147,1.147,0,0,1,1.221,1.287c0,1.177-1.4,2.563-3.52,4.587Z" transform="translate(306 825)" fill="#fff"/><path d="M5.244,24.119A1.537,1.537,0,0,1,5.7,22.992a1.572,1.572,0,0,1,1.091-.437H10.5a1.379,1.379,0,0,1,1.055.455,1.709,1.709,0,0,1,.018,2.219,1.352,1.352,0,0,1-1.055.455H6.808a1.485,1.485,0,0,1-1.091-.455A1.513,1.513,0,0,1,5.244,24.119Zm5.2,12.607a1.685,1.685,0,0,1,.418-1.11l2.674-2.6a1.4,1.4,0,0,1,1.073-.418,1.541,1.541,0,0,1,1.091.418,1.36,1.36,0,0,1,.437,1.037,1.716,1.716,0,0,1-.437,1.164L13.121,37.8a1.652,1.652,0,0,1-2.238,0A1.469,1.469,0,0,1,10.447,36.726Zm0-25.177a1.685,1.685,0,0,1,.418-1.11,1.747,1.747,0,0,1,1.164-.455,1.529,1.529,0,0,1,1.073.437L15.7,13.1a1.412,1.412,0,0,1,.437,1.073A1.492,1.492,0,0,1,14.613,15.7a1.412,1.412,0,0,1-1.073-.437l-2.656-2.6A1.523,1.523,0,0,1,10.447,11.549Zm4.639,12.57a9.182,9.182,0,0,1,1.273-4.73,9.5,9.5,0,0,1,3.475-3.475,9.333,9.333,0,0,1,8.4-.509,9.5,9.5,0,0,1,3.02,2.037,9.546,9.546,0,0,1,2.765,6.694,9.2,9.2,0,0,1-1.273,4.748,9.54,9.54,0,0,1-3.456,3.456,9.488,9.488,0,0,1-9.5,0,9.54,9.54,0,0,1-3.456-3.456A9.665,9.665,0,0,1,15.086,24.119Zm3.093,0a6.428,6.428,0,0,0,6.4,6.44,6.46,6.46,0,0,0,6.44-6.44,6.132,6.132,0,0,0-1.892-4.493,6.233,6.233,0,0,0-4.548-1.856,6.151,6.151,0,0,0-4.512,1.856A6.063,6.063,0,0,0,18.178,24.119Zm4.839,14.153a1.429,1.429,0,0,1,.455-1.091,1.54,1.54,0,0,1,1.091-.437,1.523,1.523,0,0,1,1.11.437,1.481,1.481,0,0,1,.437,1.091v3.62a1.537,1.537,0,0,1-.455,1.128,1.485,1.485,0,0,1-1.091.455,1.456,1.456,0,0,1-1.091-.455,1.537,1.537,0,0,1-.455-1.128Zm0-28.2V6.364a1.485,1.485,0,0,1,.455-1.091,1.513,1.513,0,0,1,1.11-.473,1.456,1.456,0,0,1,1.091.455,1.485,1.485,0,0,1,.455,1.091v3.729a1.379,1.379,0,0,1-.455,1.055,1.524,1.524,0,0,1-1.091.418,1.572,1.572,0,0,1-1.091-.418A1.432,1.432,0,0,1,23.017,10.076ZM33.059,34.052A1.429,1.429,0,0,1,34.5,32.615a1.541,1.541,0,0,1,1.091.418l2.656,2.6a1.583,1.583,0,0,1,.437,1.11,1.469,1.469,0,0,1-.437,1.073,1.62,1.62,0,0,1-2.183,0l-2.583-2.583A1.771,1.771,0,0,1,33.059,34.052Zm0-19.865a1.41,1.41,0,0,1,.418-1.073l2.583-2.674A1.529,1.529,0,0,1,37.134,10a1.429,1.429,0,0,1,1.091.455,1.485,1.485,0,0,1,.455,1.091,1.536,1.536,0,0,1-.437,1.128l-2.656,2.6a1.6,1.6,0,0,1-1.091.437,1.321,1.321,0,0,1-1.019-.437A1.541,1.541,0,0,1,33.059,14.187Zm4.111,9.933a1.627,1.627,0,0,1,.437-1.128,1.417,1.417,0,0,1,1.037-.437h3.675a1.544,1.544,0,0,1,1.091,2.656,1.485,1.485,0,0,1-1.091.455H38.644a1.352,1.352,0,0,1-1.055-.455A1.572,1.572,0,0,1,37.17,24.119Z" transform="translate(296.096 829.802)" fill="#fff"/><path d="M.946,0H11.858V-2.728H8.294c-.77,0-1.848.088-2.662.176,2.9-3.036,5.456-5.9,5.456-8.668,0-2.992-2.046-4.95-5.126-4.95a6.556,6.556,0,0,0-5.17,2.486l1.76,1.76a4.288,4.288,0,0,1,2.992-1.694,2.294,2.294,0,0,1,2.442,2.574c0,2.354-2.794,5.126-7.04,9.174ZM14.762,0h9.79V-2.618H21.494V-15.862H19.1A10.56,10.56,0,0,1,15.312-14.5v2H18.26v9.878h-3.5Z" transform="translate(349 857)" fill="#fff"/><path d="M3.08.112c1.568,0,2.648-1.176,2.648-3.1S4.648-6.032,3.08-6.032.432-4.912.432-2.984,1.512.112,3.08.112Zm0-1.024c-.88,0-1.44-.808-1.44-2.072S2.2-5.016,3.08-5.016s1.44.76,1.44,2.032S3.96-.912,3.08-.912ZM6.888,0H8.072V-1.664l.776-1L10.384,0h1.3L9.552-3.592,11.36-5.928h-1.3L8.1-3.352H8.072V-5.928H6.888Zm5.488,0H13.56V-5.928H12.376Zm2.64,0h1.12V-2.376c0-.68-.088-1.424-.144-2.064h.04l.6,1.272L18.344,0h1.2V-5.928h-1.12V-3.56c0,.672.1,1.456.152,2.072h-.04l-.592-1.28-1.72-3.16H15.016ZM22.3-3.088c.176-.616.352-1.288.5-1.936h.04c.168.64.328,1.32.512,1.936l.176.648H22.12ZM20.248,0h1.2l.416-1.52h1.92L24.2,0h1.24l-1.9-5.928H22.144ZM26.7,0h1.448l.648-2.928c.1-.464.176-.92.256-1.376h.032c.072.456.16.912.256,1.376L30,0h1.472l1.1-5.928h-1.12l-.472,2.9c-.088.616-.176,1.248-.264,1.888h-.04c-.128-.64-.248-1.28-.376-1.888l-.68-2.9H28.6l-.688,2.9c-.128.616-.256,1.248-.376,1.888H27.5c-.088-.64-.184-1.264-.272-1.888l-.472-2.9h-1.2Zm8.048-3.088c.176-.616.352-1.288.5-1.936h.04c.168.64.328,1.32.512,1.936l.176.648H34.568ZM32.7,0h1.2l.416-1.52h1.92L36.648,0h1.24l-1.9-5.928H34.592Z" transform="translate(342 869)" fill="#fff"/></g></svg>