<svg xmlns="http://www.w3.org/2000/svg" width="38.639" height="38.675" viewBox="0 0 38.639 38.675"><path d="M5.244,24.119A1.537,1.537,0,0,1,5.7,22.992a1.572,1.572,0,0,1,1.091-.437H10.5a1.379,1.379,0,0,1,1.055.455,1.709,1.709,0,0,1,.018,2.219,1.352,1.352,0,0,1-1.055.455H6.808a1.485,1.485,0,0,1-1.091-.455A1.513,1.513,0,0,1,5.244,24.119Zm5.2,12.607a1.685,1.685,0,0,1,.418-1.11l2.674-2.6a1.4,1.4,0,0,1,1.073-.418,1.541,1.541,0,0,1,1.091.418,1.36,1.36,0,0,1,.437,1.037,1.716,1.716,0,0,1-.437,1.164L13.121,37.8a1.652,1.652,0,0,1-2.238,0A1.469,1.469,0,0,1,10.447,36.726Zm0-25.177a1.685,1.685,0,0,1,.418-1.11,1.747,1.747,0,0,1,1.164-.455,1.529,1.529,0,0,1,1.073.437L15.7,13.1a1.412,1.412,0,0,1,.437,1.073A1.492,1.492,0,0,1,14.613,15.7a1.412,1.412,0,0,1-1.073-.437l-2.656-2.6A1.523,1.523,0,0,1,10.447,11.549Zm4.639,12.57a9.182,9.182,0,0,1,1.273-4.73,9.5,9.5,0,0,1,3.475-3.475,9.333,9.333,0,0,1,8.4-.509,9.5,9.5,0,0,1,3.02,2.037,9.546,9.546,0,0,1,2.765,6.694,9.2,9.2,0,0,1-1.273,4.748,9.54,9.54,0,0,1-3.456,3.456,9.488,9.488,0,0,1-9.5,0,9.54,9.54,0,0,1-3.456-3.456A9.665,9.665,0,0,1,15.086,24.119Zm3.093,0a6.428,6.428,0,0,0,6.4,6.44,6.46,6.46,0,0,0,6.44-6.44,6.132,6.132,0,0,0-1.892-4.493,6.233,6.233,0,0,0-4.548-1.856,6.151,6.151,0,0,0-4.512,1.856A6.063,6.063,0,0,0,18.178,24.119Zm4.839,14.153a1.429,1.429,0,0,1,.455-1.091,1.54,1.54,0,0,1,1.091-.437,1.523,1.523,0,0,1,1.11.437,1.481,1.481,0,0,1,.437,1.091v3.62a1.537,1.537,0,0,1-.455,1.128,1.485,1.485,0,0,1-1.091.455,1.456,1.456,0,0,1-1.091-.455,1.537,1.537,0,0,1-.455-1.128Zm0-28.2V6.364a1.485,1.485,0,0,1,.455-1.091,1.513,1.513,0,0,1,1.11-.473,1.456,1.456,0,0,1,1.091.455,1.485,1.485,0,0,1,.455,1.091v3.729a1.379,1.379,0,0,1-.455,1.055,1.524,1.524,0,0,1-1.091.418,1.572,1.572,0,0,1-1.091-.418A1.432,1.432,0,0,1,23.017,10.076ZM33.059,34.052A1.429,1.429,0,0,1,34.5,32.615a1.541,1.541,0,0,1,1.091.418l2.656,2.6a1.583,1.583,0,0,1,.437,1.11,1.469,1.469,0,0,1-.437,1.073,1.62,1.62,0,0,1-2.183,0l-2.583-2.583A1.771,1.771,0,0,1,33.059,34.052Zm0-19.865a1.41,1.41,0,0,1,.418-1.073l2.583-2.674A1.529,1.529,0,0,1,37.134,10a1.429,1.429,0,0,1,1.091.455,1.485,1.485,0,0,1,.455,1.091,1.536,1.536,0,0,1-.437,1.128l-2.656,2.6a1.6,1.6,0,0,1-1.091.437,1.321,1.321,0,0,1-1.019-.437A1.541,1.541,0,0,1,33.059,14.187Zm4.111,9.933a1.627,1.627,0,0,1,.437-1.128,1.417,1.417,0,0,1,1.037-.437h3.675a1.544,1.544,0,0,1,1.091,2.656,1.485,1.485,0,0,1-1.091.455H38.644a1.352,1.352,0,0,1-1.055-.455A1.572,1.572,0,0,1,37.17,24.119Z" transform="translate(-5.244 -4.8)" fill="#fff"/></svg>